<?xml version="1.0" encoding="UTF-8"?>
<svg xmlns="http://www.w3.org/2000/svg" xmlns:xlink="http://www.w3.org/1999/xlink" width="512px" height="512px" viewBox="0 0 512 512" version="1.1">
<g id="surface1">
<path style=" stroke:none;fill-rule:nonzero;fill:rgb(91.764706%,34.901962%,43.137255%);fill-opacity:1;" d="M 99.554688 341.332031 C 127.386719 341.332031 151.226562 357.476562 162.914062 380.757812 L 212.367188 356.023438 C 191.828125 313.714844 148.566406 284.445312 98.359375 284.445312 C 79.859375 284.445312 62.320312 288.496094 46.464844 295.636719 L 70.1875 347.832031 C 79.160156 343.75 89.058594 341.332031 99.554688 341.332031 Z M 412.445312 341.332031 C 433.308594 341.332031 451.867188 350.476562 464.894531 364.773438 L 506.097656 327.296875 C 482.871094 301.070312 449.039062 284.445312 411.25 284.445312 C 360.390625 284.445312 316.644531 314.46875 296.433594 357.6875 L 348.316406 382.179688 C 359.722656 358.117188 384.042969 341.332031 412.445312 341.332031 Z M 412.445312 341.332031 "/>
<path style=" stroke:none;fill-rule:nonzero;fill:rgb(16.078432%,18.431373%,20%);fill-opacity:1;" d="M 99.554688 312.890625 C 44.574219 312.890625 0 357.460938 0 412.445312 C 0 467.425781 44.574219 512 99.554688 512 C 154.539062 512 199.109375 467.425781 199.109375 412.445312 C 199.109375 357.460938 154.554688 312.890625 99.554688 312.890625 Z M 99.554688 483.554688 C 60.289062 483.554688 28.445312 451.726562 28.445312 412.445312 C 28.445312 373.164062 60.289062 341.332031 99.554688 341.332031 C 138.824219 341.332031 170.667969 373.164062 170.667969 412.445312 C 170.667969 451.726562 138.835938 483.554688 99.554688 483.554688 Z M 412.445312 312.890625 C 357.476562 312.890625 312.890625 357.460938 312.890625 412.445312 C 312.890625 467.425781 357.476562 512 412.445312 512 C 467.441406 512 512 467.425781 512 412.445312 C 512 357.460938 467.441406 312.890625 412.445312 312.890625 Z M 412.445312 483.554688 C 373.175781 483.554688 341.332031 451.726562 341.332031 412.445312 C 341.332031 373.164062 373.175781 341.332031 412.445312 341.332031 C 451.726562 341.332031 483.554688 373.164062 483.554688 412.445312 C 483.554688 451.726562 451.726562 483.554688 412.445312 483.554688 Z M 412.445312 483.554688 "/>
<path style=" stroke:none;fill-rule:nonzero;fill:rgb(86.666667%,18.039216%,26.666668%);fill-opacity:1;" d="M 426.4375 411.335938 C 426.367188 410.382812 426.140625 409.457031 425.871094 408.519531 C 425.601562 407.59375 425.300781 406.726562 424.859375 405.875 C 424.675781 405.53125 424.648438 405.132812 424.449219 404.808594 L 324.890625 248.363281 C 320.667969 241.734375 311.894531 239.773438 305.25 243.996094 C 301 246.699219 298.9375 251.292969 298.921875 255.984375 L 170.667969 255.984375 C 162.816406 255.984375 156.445312 262.34375 156.445312 270.207031 C 156.445312 278.074219 162.816406 284.429688 170.667969 284.429688 L 312.890625 284.429688 C 313.273438 284.429688 313.601562 284.230469 313.984375 284.203125 L 386.53125 398.222656 L 256 398.222656 C 248.148438 398.222656 241.777344 404.578125 241.777344 412.445312 C 241.777344 420.308594 248.148438 426.667969 256 426.667969 L 412.457031 426.667969 C 414.109375 426.667969 415.730469 426.269531 417.335938 425.683594 C 417.820312 425.5 418.246094 425.300781 418.714844 425.074219 C 419.15625 424.832031 419.65625 424.734375 420.097656 424.449219 C 420.523438 424.164062 420.777344 423.722656 421.164062 423.425781 C 421.945312 422.796875 422.628906 422.160156 423.253906 421.390625 C 423.835938 420.691406 424.304688 419.980469 424.734375 419.199219 C 425.160156 418.402344 425.515625 417.636719 425.800781 416.753906 C 426.097656 415.816406 426.269531 414.875 426.367188 413.894531 C 426.425781 413.382812 426.667969 412.957031 426.667969 412.445312 C 426.667969 412.058594 426.46875 411.71875 426.4375 411.335938 Z M 426.4375 411.335938 "/>
<path style=" stroke:none;fill-rule:nonzero;fill:rgb(86.666667%,18.039216%,26.666668%);fill-opacity:1;" d="M 306.929688 227.554688 L 265.699219 342.996094 L 181.375 246.640625 C 176.199219 240.738281 167.210938 240.113281 161.308594 245.304688 C 155.40625 250.480469 154.808594 259.457031 159.972656 265.371094 L 254.75 373.675781 L 242.601562 407.664062 C 239.972656 415.046875 243.824219 423.195312 251.222656 425.828125 C 252.800781 426.394531 254.40625 426.667969 256 426.667969 C 261.84375 426.667969 267.320312 423.039062 269.398438 417.222656 L 337.136719 227.554688 Z M 306.929688 227.554688 "/>
<path style=" stroke:none;fill-rule:nonzero;fill:rgb(86.666667%,18.039216%,26.666668%);fill-opacity:1;" d="M 99.554688 426.667969 C 97.421875 426.667969 95.246094 426.183594 93.210938 425.171875 C 86.1875 421.660156 83.34375 413.113281 86.855469 406.085938 L 130.402344 319.246094 C 130.644531 318.847656 156.445312 279.480469 156.445312 241.777344 C 156.445312 195.667969 123.832031 184.277344 123.503906 184.164062 C 116.054688 181.675781 112.027344 173.625 114.515625 166.171875 C 116.992188 158.71875 125.027344 154.652344 132.507812 157.183594 C 134.640625 157.894531 184.890625 175.402344 184.890625 241.777344 C 184.890625 285.410156 158.777344 327.707031 154.582031 334.179688 L 112.285156 418.789062 C 109.796875 423.792969 104.773438 426.667969 99.554688 426.667969 Z M 99.554688 426.667969 "/>
<path style=" stroke:none;fill-rule:nonzero;fill:rgb(16.078432%,18.431373%,20%);fill-opacity:1;" d="M 207.816406 194.316406 C 207.046875 194.316406 206.25 194.261719 205.46875 194.117188 L 120.136719 179.898438 C 112.398438 178.601562 107.148438 171.277344 108.445312 163.527344 C 109.738281 155.789062 116.992188 150.542969 124.8125 151.835938 L 210.148438 166.058594 C 217.882812 167.351562 223.132812 174.675781 221.839844 182.429688 C 220.671875 189.382812 214.640625 194.316406 207.816406 194.316406 Z M 375.226562 241.777344 C 374.796875 241.777344 374.386719 241.75 373.960938 241.691406 L 293.289062 231.625 C 288 230.96875 284.132812 226.304688 284.472656 220.984375 C 284.800781 215.664062 289.207031 211.527344 294.527344 211.527344 C 295.109375 211.527344 352.371094 211.269531 379.703125 193.050781 C 383.261719 190.675781 387.980469 190.820312 391.425781 193.421875 C 394.824219 196.054688 396.21875 200.546875 394.851562 204.628906 L 384.769531 234.878906 C 383.402344 239.046875 379.519531 241.777344 375.226562 241.777344 Z M 375.226562 241.777344 "/>
<path style=" stroke:none;fill-rule:nonzero;fill:rgb(40.000001%,45.882353%,49.803922%);fill-opacity:1;" d="M 284.445312 412.445312 C 284.445312 428.144531 271.714844 440.890625 256 440.890625 C 240.296875 440.890625 227.554688 428.144531 227.554688 412.445312 C 227.554688 396.742188 240.296875 384 256 384 C 271.714844 384 284.445312 396.742188 284.445312 412.445312 Z M 284.445312 412.445312 "/>
</g>
</svg>
